<svg xmlns="http://www.w3.org/2000/svg" viewBox="0 0 200 267" role="img" aria-labelledby="pt pt2">
  <title id="pt">Billy's Big Adventure</title>
  <desc id="pt2">Retro travel-poster style: sky, dam, road, sun, Dworshak or bust sign</desc>
  <defs>
    <linearGradient id="bg" x1="0%" y1="0%" x2="0%" y2="100%">
      <stop offset="0%" stop-color="#38b8e8"/>
      <stop offset="55%" stop-color="#0d5a82"/>
      <stop offset="100%" stop-color="#061a28"/>
    </linearGradient>
    <linearGradient id="sun" x1="0%" y1="0%" x2="100%" y2="100%">
      <stop offset="0%" stop-color="#ffdf6b"/>
      <stop offset="100%" stop-color="#ffc72c"/>
    </linearGradient>
  </defs>
  <rect width="200" height="267" fill="url(#bg)"/>
  <circle cx="158" cy="48" r="28" fill="url(#sun)" opacity="0.95"/>
  <path d="M0 200 L35 160 L70 185 L110 145 L150 175 L200 155 L200 267 L0 267 Z" fill="#1e5c3a" opacity="0.45"/>
  <path d="M0 195 Q50 175 100 190 T200 180" fill="none" stroke="#ffc72c" stroke-width="3" stroke-dasharray="8 7"/>
  <path fill="#5a6d7e" d="M52 198 L58 148 L142 148 L148 198 Z"/>
  <rect x="48" y="192" width="104" height="14" fill="#38b8e8" opacity="0.85"/>
  <rect x="78" y="132" width="44" height="18" rx="2" fill="#ffc72c"/>
  <rect x="12" y="28" width="76" height="22" rx="3" fill="#5c3d2e" stroke="#ffc72c" stroke-width="2"/>
  <text x="50" y="44" text-anchor="middle" fill="#ffc72c" font-family="Arial Black, sans-serif" font-size="8">DWORSHAK OR BUST</text>
  <text x="100" y="88" text-anchor="middle" fill="#ffc72c" font-family="Georgia, serif" font-size="14" font-weight="bold" stroke="#e31c2d" stroke-width="0.5">Billy's</text>
  <text x="100" y="112" text-anchor="middle" fill="#e31c2d" font-family="Arial Black, sans-serif" font-size="22">BIG</text>
  <rect x="20" y="118" width="160" height="22" rx="4" fill="#0d5a82" stroke="#ffc72c" stroke-width="2"/>
  <text x="100" y="134" text-anchor="middle" fill="#ffc72c" font-family="Arial Black, sans-serif" font-size="11">ADVENTURE!</text>
  <ellipse cx="100" cy="228" rx="22" ry="12" fill="#38b8e8" opacity="0.5"/>
  <path d="M88 228 L76 220 v16 Z" fill="#1e5c3a"/>
</svg>
